<svg width="120" height="120" viewBox="0 0 120 120" fill="none" xmlns="http://www.w3.org/2000/svg">
  <!-- Background Circle -->
  <circle cx="60" cy="60" r="55" fill="white" stroke="#10B981" stroke-width="3"/>
  
  <!-- Inner Circle for Depth -->
  <circle cx="60" cy="60" r="50" fill="none" stroke="#E5E7EB" stroke-width="1"/>
  
  <!-- Barcode Lines - Clearer and More Professional -->
  <rect x="25" y="30" width="3" height="60" fill="#111827"/>
  <rect x="30" y="30" width="1" height="60" fill="#111827"/>
  <rect x="33" y="30" width="2" height="60" fill="#111827"/>
  <rect x="37" y="30" width="1" height="60" fill="#111827"/>
  <rect x="40" y="30" width="4" height="60" fill="#111827"/>
  <rect x="46" y="30" width="1" height="60" fill="#111827"/>
  <rect x="49" y="30" width="2" height="60" fill="#111827"/>
  <rect x="53" y="30" width="1" height="60" fill="#111827"/>
  <rect x="56" y="30" width="3" height="60" fill="#111827"/>
  <rect x="61" y="30" width="1" height="60" fill="#111827"/>
  <rect x="64" y="30" width="2" height="60" fill="#111827"/>
  <rect x="68" y="30" width="1" height="60" fill="#111827"/>
  <rect x="71" y="30" width="3" height="60" fill="#111827"/>
  <rect x="76" y="30" width="1" height="60" fill="#111827"/>
  <rect x="79" y="30" width="2" height="60" fill="#111827"/>
  <rect x="83" y="30" width="1" height="60" fill="#111827"/>
  <rect x="86" y="30" width="4" height="60" fill="#111827"/>
  <rect x="92" y="30" width="1" height="60" fill="#111827"/>
  <rect x="95" y="30" width="2" height="60" fill="#111827"/>
  
  <!-- Green Accent Lines -->
  <rect x="28" y="32" width="1" height="56" fill="#10B981"/>
  <rect x="35" y="32" width="1" height="56" fill="#10B981"/>
  <rect x="42" y="32" width="1" height="56" fill="#10B981"/>
  <rect x="51" y="32" width="1" height="56" fill="#10B981"/>
  <rect x="58" y="32" width="1" height="56" fill="#10B981"/>
  <rect x="66" y="32" width="1" height="56" fill="#10B981"/>
  <rect x="74" y="32" width="1" height="56" fill="#10B981"/>
  <rect x="82" y="32" width="1" height="56" fill="#10B981"/>
  <rect x="90" y="32" width="1" height="56" fill="#10B981"/>
  <rect x="97" y="32" width="1" height="56" fill="#10B981"/>
  
  <!-- Professional Leaf Icon -->
  <path d="M60 15 C65 10, 72 15, 68 22 C64 29, 56 29, 60 22 C64 15, 65 10, 60 15 Z" fill="#10B981"/>
  <path d="M55 22 C60 15, 67 22, 63 29 C59 36, 51 36, 55 29 C59 22, 60 15, 55 22 Z" fill="#059669"/>
  
  <!-- Professional Checkmark -->
  <path d="M45 75 L52 82 L75 59" stroke="#10B981" stroke-width="4" stroke-linecap="round" stroke-linejoin="round" fill="none"/>
  
  <!-- Scanning Frame -->
  <rect x="20" y="25" width="80" height="70" fill="none" stroke="#10B981" stroke-width="2" stroke-dasharray="5,5" opacity="0.3"/>
  
  <!-- Corner Brackets -->
  <path d="M20 25 L30 25 L30 35" stroke="#10B981" stroke-width="3" fill="none"/>
  <path d="M90 25 L100 25 L100 35" stroke="#10B981" stroke-width="3" fill="none"/>
  <path d="M20 85 L30 85 L30 95" stroke="#10B981" stroke-width="3" fill="none"/>
  <path d="M90 85 L100 85 L100 95" stroke="#10B981" stroke-width="3" fill="none"/>
</svg>
