<svg width="120" height="120" viewBox="0 0 120 120" fill="none" xmlns="http://www.w3.org/2000/svg">
  <!-- Background Circle -->
  <circle cx="60" cy="60" r="55" fill="url(#gradient)" stroke="#10B981" stroke-width="2"/>
  
  <!-- Scanning Lines -->
  <rect x="25" y="45" width="70" height="2" fill="#10B981" opacity="0.8">
    <animate attributeName="y" values="45;55;45" dur="2s" repeatCount="indefinite"/>
  </rect>
  <rect x="25" y="55" width="70" height="2" fill="#10B981" opacity="0.6">
    <animate attributeName="y" values="55;65;55" dur="2s" repeatCount="indefinite"/>
  </rect>
  <rect x="25" y="65" width="70" height="2" fill="#10B981" opacity="0.4">
    <animate attributeName="y" values="65;75;65" dur="2s" repeatCount="indefinite"/>
  </rect>
  
  <!-- Barcode Lines -->
  <rect x="30" y="35" width="2" height="50" fill="#10B981"/>
  <rect x="35" y="35" width="1" height="50" fill="#10B981"/>
  <rect x="38" y="35" width="3" height="50" fill="#10B981"/>
  <rect x="43" y="35" width="1" height="50" fill="#10B981"/>
  <rect x="46" y="35" width="2" height="50" fill="#10B981"/>
  <rect x="50" y="35" width="1" height="50" fill="#10B981"/>
  <rect x="53" y="35" width="4" height="50" fill="#10B981"/>
  <rect x="59" y="35" width="1" height="50" fill="#10B981"/>
  <rect x="62" y="35" width="2" height="50" fill="#10B981"/>
  <rect x="66" y="35" width="1" height="50" fill="#10B981"/>
  <rect x="69" y="35" width="3" height="50" fill="#10B981"/>
  <rect x="74" y="35" width="1" height="50" fill="#10B981"/>
  <rect x="77" y="35" width="2" height="50" fill="#10B981"/>
  <rect x="81" y="35" width="1" height="50" fill="#10B981"/>
  <rect x="84" y="35" width="3" height="50" fill="#10B981"/>
  <rect x="89" y="35" width="1" height="50" fill="#10B981"/>
  
  <!-- Leaf Icon (Health Symbol) -->
  <path d="M60 25 C65 20, 70 25, 65 30 C60 35, 55 30, 60 25 Z" fill="#10B981" opacity="0.8"/>
  <path d="M55 30 C60 25, 65 30, 60 35 C55 40, 50 35, 55 30 Z" fill="#10B981" opacity="0.6"/>
  
  <!-- Checkmark (Halal/Approved Symbol) -->
  <path d="M50 70 L55 75 L70 60" stroke="#10B981" stroke-width="3" stroke-linecap="round" stroke-linejoin="round" fill="none">
    <animate attributeName="stroke-dasharray" values="0,30;30,0" dur="1s" begin="0.5s" fill="freeze"/>
  </path>
  
  <!-- Gradient Definition -->
  <defs>
    <linearGradient id="gradient" x1="0%" y1="0%" x2="100%" y2="100%">
      <stop offset="0%" style="stop-color:#D1FAE5;stop-opacity:1" />
      <stop offset="100%" style="stop-color:#A7F3D0;stop-opacity:1" />
    </linearGradient>
  </defs>
</svg>
